<svg viewBox="0 0 141 108" fill="none" xmlns="http://www.w3.org/2000/svg">
    <path fill-rule="evenodd" clip-rule="evenodd" d="M3 3C51.7568 3 89.2432 3 138 3V105H3C3 59.5898 3 48.4102 3 3ZM119.224 84.4117H85.336C84.8435 84.4117 84.4442 84.8122 84.4442 85.3062V94.2508C84.4442 94.7448 84.8435 95.1452 85.336 95.1452H119.224C119.716 95.1452 120.116 94.7448 120.116 94.2508V85.3062C120.116 84.8122 119.716 84.4117 119.224 84.4117ZM77.31 95.3892H61.8328L41.1964 70.3787L36.0374 75.3808V95.3892H20.5601V12.8548H36.0374V57.8735H38.6169L56.6737 32.8631H77.31L54.0941 60.3746L77.31 95.3892Z" fill="#FFFFFF"/>
    <path fill-rule="evenodd" clip-rule="evenodd" d="M3 3C56.5136 3 138 3 138 3V105H3C3 105 3 43.6301 3 3ZM61.8328 95.3892H77.31L54.0941 60.3746L77.31 32.8631H56.6737L38.6169 57.8735H36.0374V12.8548H20.5601V95.3892H36.0374V75.3808L41.1964 70.3787L61.8328 95.3892ZM85.336 84.4117H119.224C119.716 84.4117 120.116 84.8122 120.116 85.3062V94.2508C120.116 94.7448 119.716 95.1452 119.224 95.1452H85.336C84.8435 95.1452 84.4442 94.7448 84.4442 94.2508V85.3062C84.4442 84.8122 84.8435 84.4117 85.336 84.4117Z" fill="#FFFFFF"/>
    <path d="M3 3V0C1.34315 0 0 1.34315 0 3L3 3ZM138 3H141C141 1.34315 139.657 0 138 0V3ZM138 105V108C139.657 108 141 106.657 141 105H138ZM3 105H0C0 106.657 1.34315 108 3 108L3 105ZM3 6H138V0H3V6ZM135 3V105H141V3H135ZM138 102H3V108H138V102ZM6 105V3H0V105H6Z" fill="#FFFFFF"/>
</svg>