<svg viewBox="0 0 256 85" fill="none" xmlns="http://www.w3.org/2000/svg">
    <path fill-rule="evenodd" clip-rule="evenodd" d="M215 56.9549C215 59.7235 216.413 62.5412 221 63.9338L224 64.9308C226.742 65.7731 228 66.5133 228 67.9218C228 69.4437 226.351 70.9945 224 70.9128C221.16 70.7835 220.62 68.6085 220 66.9248L214 67.9218C214.947 72.2449 219.075 75.8977 225 75.8977C231.039 75.8977 234 72.0506 234 67.9218C234 64.7812 231.865 62.3839 227 60.9428L225 59.9459C222.601 59.2662 221 58.3792 221 56.9549C221 55.4496 222.911 54.8483 225 54.9609C227.415 55.091 228.592 56.6084 229 57.9519L234 56.9549C233.168 52.7777 230.175 49.9759 225 49.9759C219.744 49.9759 215 52.5843 215 56.9549ZM256 74.9007H235V79.8857H256V74.9007ZM204 74.9007H212L203 61.9398L212 49.9759H204L197 59.9459H195V49.9759H188V74.9007H195V65.9278H197L204 74.9007ZM162 49.9759V74.9007H169V65.9278H173L178 74.9007H185L179 64.9308C181.994 63.5723 184 60.9557 184 57.9519C184 53.1868 179.597 49.9759 173 49.9759H162ZM169 54.9609H173C175.825 54.9609 177 57.2543 177 58.9489C177 60.5934 175.707 61.9398 173 61.9398H169V54.9609ZM148 75.8977C154.366 75.8977 159 71.0635 159 62.9368C159 54.6634 154.202 49.9759 148 49.9759C141.797 49.9759 137 54.6634 137 62.9368C137 71.0635 141.585 75.8977 148 75.8977ZM148 70.9128C144.539 70.9128 143 67.8428 143 62.9368C143 57.9825 144.589 54.9609 148 54.9609C151.411 54.9609 153 57.9825 153 62.9368C153 67.8428 151.46 70.9128 148 70.9128ZM113 49.9759V64.9308C113 68.656 110.555 70.9128 108 70.9128C105.835 70.9128 105 68.656 105 64.9308V49.9759H99V64.9308C99 71.8608 102.181 75.8977 108 75.8977C111.062 75.8977 114.325 74.1247 116 71.9098C117.59 74.1247 119.989 75.8977 123 75.8977C128.887 75.8977 133 71.8608 133 64.9308V49.9759H126V64.9308C126 68.656 125.267 70.9128 123 70.9128C120.53 70.9128 119 68.656 119 64.9308V49.9759H113ZM81 75.8977C80.135 78.3903 78.6443 79.8857 76 79.8857C75.3958 79.8857 75.4563 79.9507 75 79.8857V84.8706C75.9628 85.1617 76.8901 84.8706 78 84.8706C82.7988 84.8706 85.0205 81.8191 86 78.8887L96 49.9759H89L84 65.9278L79 49.9759H73L81 74.9007V75.8977ZM58 65.9278V67.9218L57 65.9278L53 49.9759H47L55 74.9007H61L66 57.9519C66.3895 56.6776 67.8492 54.9609 69 54.9609C69.3719 54.9609 69.9148 54.91 70 54.9609L71 49.9759C70.2721 49.6073 68.88 49.9759 68 49.9759C64.194 49.9759 62.4893 52.0564 61 56.9549L58 65.9278ZM16 74.9007H22L13 60.9428L22 49.9759H14L7 59.9459H6V42H0V74.9007H6V66.9248L8 64.9308L16 74.9007ZM34 75.8977C40.3165 75.8977 44.0865 72.3346 45 68.9188L39 66.9248C38.3139 68.802 37.0195 70.9128 34 70.9128C30.3436 70.9128 28.4078 68.7027 28 64.9308H45V61.9398C45 53.9099 40.3332 49.9759 34 49.9759C26.7525 49.9759 22 55.3272 22 62.9368C22 70.4489 26.4424 75.8977 34 75.8977ZM34 54.9609C37.363 54.9609 39 56.9671 39 59.9459H28C28.6694 56.6268 31.0298 54.9609 34 54.9609Z" fill="#FFFFFF"/>
    <path fill-rule="evenodd" clip-rule="evenodd" d="M3 3C16.7241 3 27.2759 3 41 3V32H3C3 19.0893 3 15.9107 3 3ZM35.7148 26.1465H26.1761C26.0374 26.1465 25.925 26.2603 25.925 26.4008V28.9438C25.925 29.0843 26.0374 29.1982 26.1761 29.1982H35.7148C35.8535 29.1982 35.9659 29.0843 35.9659 28.9438V26.4008C35.9659 26.2603 35.8535 26.1465 35.7148 26.1465ZM23.9169 29.2675H19.5603L13.7516 22.1567L12.2994 23.5789V29.2675H7.94286V5.80185H12.2994V18.6013H13.0255L18.1081 11.4905H23.9169L17.3821 19.3124L23.9169 29.2675Z" fill="#FFFFFF"/>
    <path fill-rule="evenodd" clip-rule="evenodd" d="M3 3C18.0631 3 41 3 41 3V32H3C3 32 3 14.5517 3 3ZM19.5603 29.2675H23.9169L17.3821 19.3124L23.9169 11.4905H18.1081L13.0255 18.6013H12.2994V5.80185H7.94286V29.2675H12.2994V23.5789L13.7516 22.1567L19.5603 29.2675ZM26.1761 26.1465H35.7148C35.8535 26.1465 35.9659 26.2603 35.9659 26.4008V28.9438C35.9659 29.0843 35.8535 29.1982 35.7148 29.1982H26.1761C26.0374 29.1982 25.925 29.0843 25.925 28.9438V26.4008C25.925 26.2603 26.0374 26.1465 26.1761 26.1465Z" fill="#FFFFFF"/>
    <path d="M3 3V0C1.34315 0 0 1.34315 0 3L3 3ZM41 3H44C44 1.34315 42.6569 0 41 0V3ZM41 32V35C42.6569 35 44 33.6569 44 32H41ZM3 32H0C0 33.6569 1.34315 35 3 35L3 32ZM3 6H41V0H3V6ZM38 3V32H44V3H38ZM41 29H3V35H41V29ZM6 32V3H0V32H6Z" fill="#FFFFFF"/>
</svg>